<?xml version="1.0" encoding="UTF-8"?>
<svg version="1.1" xmlns="http://www.w3.org/2000/svg" width="266" height="207">
<path d="M0 0 C4.59139633 0.04312183 9.16741589 -0.03196449 13.75785828 -0.16442871 C15.9765942 -0.18429799 18.1953446 -0.20263608 20.41410828 -0.21911621 C21.3958905 -0.27212891 22.37767273 -0.3251416 23.38920593 -0.37976074 C27.91384544 -0.34720938 30.33748791 0.13861906 33.69633484 3.28796387 C39.02020568 10.06918511 43.03459503 17.66039434 46.86479187 25.36032104 C47.81454738 27.26952154 48.77847967 29.17098427 49.74613953 31.07116699 C51.02452187 33.58392159 52.29816283 36.09895721 53.56645203 38.61682129 C61.07934049 56.91628748 61.07934049 56.91628748 73.74223328 69.90588379 C76.75071225 70.0535392 77.87414607 69.82598917 80.28910828 68.03088379 C82.08637661 65.54714648 82.08637661 65.54714648 83.72660828 62.40588379 C84.05660828 61.80759766 84.38660828 61.20931152 84.72660828 60.59289551 C85.48564623 59.21118797 86.23896492 57.82632963 86.98783875 56.43908691 C88.45245716 53.72858109 89.93505567 51.028272 91.41801453 48.32775879 C96.33121486 39.34764412 101.19088109 30.36421302 105.66410828 21.15588379 C113.66781563 4.78069748 113.66781563 4.78069748 120.28910828 1.03088379 C125.69642054 0.17637459 130.9751422 -0.11036339 136.44926453 -0.0826416 C137.60681496 -0.08286064 137.60681496 -0.08286064 138.78775024 -0.08308411 C141.30906602 -0.08239389 143.83030559 -0.07464372 146.35160828 -0.06677246 C148.11137349 -0.06490511 149.87113923 -0.0634827 151.63090515 -0.06248474 C156.24055949 -0.05868454 160.85018183 -0.04887581 165.45982361 -0.03778076 C170.17244535 -0.02751273 174.8850723 -0.02297561 179.59770203 -0.01794434 C188.82818476 -0.00725109 198.05864385 0.00979504 207.28910828 0.03088379 C206.62074861 3.66421895 205.75976525 6.35697463 203.91020203 9.56604004 C203.40948181 10.4431665 202.9087616 11.32029297 202.39286804 12.22399902 C201.56806946 13.64434448 201.56806946 13.64434448 200.72660828 15.09338379 C200.15160583 16.09635498 199.57660339 17.09932617 198.98417664 18.13269043 C197.74056303 20.30116588 196.49411579 22.46801818 195.24516296 24.63342285 C193.27265996 28.05945278 191.31402317 31.49305098 189.35942078 34.92932129 C183.62624749 45.00466672 177.87095754 55.06484786 171.99809265 65.05969238 C164.53317457 77.76498295 157.38312951 90.62854687 150.29896545 103.54801941 C141.92005711 118.82567482 133.47235432 134.06575768 124.7808075 149.16809082 C122.07500618 153.87671122 119.40964669 158.60448659 116.78520203 163.35900879 C116.18264587 164.44746094 115.58008972 165.53591309 114.95927429 166.65734863 C113.81237005 168.73278829 112.67042535 170.81098149 111.53495789 172.8927002 C110.43672169 174.87713117 109.30711146 176.84447848 108.14897156 178.79455566 C106.76164163 181.20863357 105.5675904 183.55203102 104.39408875 186.06408691 C101.90643886 190.97849153 99.44209303 195.81430555 94.06773376 197.88800049 C88.59886213 199.08527962 83.17535765 199.08208641 77.60258484 198.87658691 C74.65513135 198.78059142 71.73676758 198.83504551 68.78910828 198.90588379 C55.76651385 198.90990441 55.76651385 198.90990441 51.66011047 195.79534912 C48.59598429 192.33958255 46.9602666 188.27908523 45.28910828 184.03088379 C44.50192599 182.59667754 43.69223372 181.17427425 42.84770203 179.77307129 C42.13762396 178.48568461 41.43065346 177.19657961 40.72660828 175.90588379 C39.8765395 174.36280945 39.02626528 172.81984828 38.17582703 171.27697754 C37.71869324 170.44537109 37.26155945 169.61376465 36.79057312 168.75695801 C33.88757986 163.48625513 30.96183064 158.22816351 28.03910828 152.96838379 C27.39900818 151.81580078 26.75890808 150.66321777 26.09941101 149.47570801 C21.27313606 140.78794467 16.42048207 132.11510812 11.55961609 123.44665527 C7.28423808 115.81831026 3.03225896 108.17719555 -1.21089172 100.53088379 C-7.76710934 88.71768094 -14.35992376 76.92537027 -20.96821594 65.14123535 C-22.74039306 61.9782294 -24.50928571 58.81340692 -26.27729797 55.64807129 C-27.46345189 53.52565087 -28.64964954 51.40325488 -29.83589172 49.28088379 C-30.41355286 48.24641113 -30.99121399 47.21193848 -31.58638 46.14611816 C-34.36244395 41.18477554 -37.15902841 36.23771119 -40.01167297 31.31994629 C-45.7571351 21.41030148 -51.1271937 11.53788172 -55.71089172 1.03088379 C-37.13364366 0.14411912 -18.59565532 -0.20308182 0 0 Z M-14.71089172 13.03088379 C-15.04089172 13.69088379 -15.37089172 14.35088379 -15.71089172 15.03088379 C-14.97266174 15.45272949 -14.23443176 15.8745752 -13.47383118 16.3092041 C-11.85325004 17.23525046 -10.23267072 18.16129999 -8.61212158 19.08740234 C-5.46982665 20.88310643 -2.3273439 22.67848051 0.81547546 24.4732666 C6.72847697 27.85044581 12.63998859 31.23003306 18.54301453 34.62463379 C19.4786322 35.16185059 20.41424988 35.69906738 21.3782196 36.25256348 C23.09914242 37.24100066 24.81909949 38.231122 26.53788757 39.2232666 C31.37937529 42.0012761 36.27348216 44.58032674 41.28910828 47.03088379 C39.93221252 42.61920957 38.19804269 38.66490287 36.06645203 34.57385254 C35.76090897 33.98542068 35.45536591 33.39698883 35.14056396 32.79072571 C34.49968561 31.55858242 33.85670724 30.32752933 33.2117157 29.09753418 C32.22153031 27.20869728 31.23821841 25.31640281 30.25590515 23.42346191 C27.74788608 17.88029324 27.74788608 17.88029324 24.28910828 13.03088379 C21.40477008 12.94223171 18.5444867 12.91567083 15.66020203 12.93322754 C14.79597122 12.93464249 13.93174042 12.93605743 13.0413208 12.93751526 C10.26971535 12.9431314 7.49818948 12.9556866 4.72660828 12.96838379 C2.85226048 12.97339671 0.97791143 12.97795998 -0.8964386 12.98205566 C-5.50128716 12.99310607 -10.10607593 13.01038149 -14.71089172 13.03088379 Z M126.28910828 14.03088379 C124.22660828 17.64025879 122.16410828 21.24963379 120.03910828 24.96838379 C119.07569519 26.64662231 119.07569519 26.64662231 118.09281921 28.35876465 C114.81594203 34.12592575 111.82114629 39.89757425 109.28910828 46.03088379 C113.46264299 44.74825903 117.12812618 43.17387226 120.93754578 41.04650879 C122.01479919 40.44725586 123.09205261 39.84800293 124.20195007 39.23059082 C125.34446228 38.5871875 126.48697449 37.94378418 127.66410828 37.28088379 C128.85518861 36.6139083 130.04635183 35.94708082 131.2375946 35.28039551 C139.51962594 30.63462684 147.76182991 25.91948308 155.97660828 21.15588379 C157.01543152 20.55550293 158.05425476 19.95512207 159.1245575 19.33654785 C160.06960144 18.78450684 161.01464539 18.23246582 161.98832703 17.66369629 C162.82194763 17.17788086 163.65556824 16.69206543 164.51445007 16.19152832 C165.10008728 15.80851562 165.68572449 15.42550293 166.28910828 15.03088379 C166.28910828 14.70088379 166.28910828 14.37088379 166.28910828 14.03088379 C153.08910828 14.03088379 139.88910828 14.03088379 126.28910828 14.03088379 Z M156.28910828 35.03088379 C154.14613349 35.99633281 154.14613349 35.99633281 151.75785828 37.50354004 C150.81458679 38.06661865 149.87131531 38.62969727 148.89945984 39.20983887 C147.35983582 40.1421936 147.35983582 40.1421936 145.78910828 41.09338379 C136.82789504 46.44109473 127.77732835 51.48412017 118.53910828 56.34338379 C102.65412505 64.48086874 102.65412505 64.48086874 90.28910828 77.03088379 C90.47740603 80.67130709 91.13988459 83.58321272 92.28910828 87.03088379 C92.82121859 91.61052175 92.74390404 95.08490859 90.72660828 99.28088379 C88.50241992 101.7902245 87.48044386 102.4718278 84.67948914 103.93395996 C82.18940128 105.69342494 81.40224567 106.56591159 80.67292786 109.56326294 C80.47744147 112.84034212 80.50290388 116.05025507 80.60551453 119.33166504 C80.61541916 120.52317673 80.62532379 121.71468842 80.63552856 122.94230652 C80.67468001 126.74392327 80.76251524 130.54264139 80.85160828 134.34338379 C80.88672062 136.92211811 80.91865973 139.50089772 80.9473114 142.07971191 C81.02444515 148.39775638 81.14154631 154.71411303 81.28910828 161.03088379 C83.3735076 157.9042848 84.03968037 155.64625985 84.95317078 152.02697754 C85.26617126 150.82033447 85.57917175 149.61369141 85.9016571 148.3704834 C86.06614349 147.73351532 86.23062988 147.09654724 86.40010071 146.4402771 C89.62342743 134.0745907 93.39567494 122.41023953 99.28910828 111.03088379 C99.68436707 110.2555127 100.07962585 109.4801416 100.48686218 108.68127441 C103.12621168 103.55199187 105.9112366 98.52743169 108.82475281 93.5489502 C109.76841055 91.92626164 110.69529372 90.29364284 111.60112 88.64953613 C123.08858722 67.9669534 141.40297557 52.25227764 158.28910828 36.03088379 C157.29910828 35.53588379 157.29910828 35.53588379 156.28910828 35.03088379 Z M-3.71089172 37.03088379 C-3.25109644 41.72915563 -1.51280297 43.69043121 1.85160828 46.90588379 C2.75910828 47.7785791 3.66660828 48.65127441 4.60160828 49.55041504 C7.45357816 52.18268376 10.35979341 54.73699745 13.29692078 57.27307129 C25.70101057 68.2178564 34.14974195 80.78979807 41.81596375 95.26672363 C43.46127897 98.35393925 45.14372166 101.41974321 46.82426453 104.48791504 C53.98970249 117.73514944 59.74881139 130.39119322 63.28910828 145.03088379 C63.69832697 146.62651193 64.10977584 148.22156982 64.52348328 149.81604004 C65.48258542 153.54601459 66.39943133 157.28377382 67.28910828 161.03088379 C67.61910828 161.03088379 67.94910828 161.03088379 68.28910828 161.03088379 C68.66101104 153.47043533 68.96066149 145.90956733 69.21073914 138.34411621 C69.30422018 135.7721725 69.41409801 133.20076948 69.54081726 130.63024902 C69.72038833 126.92936803 69.84043198 123.23053152 69.94926453 119.52697754 C70.01758987 118.38192245 70.08591522 117.23686737 70.15631104 116.05711365 C70.34951022 109.91123777 70.34951022 109.91123777 67.31373596 104.81948853 C64.93488201 102.9391627 64.93488201 102.9391627 62.44216919 101.45240784 C59.05751066 99.21774115 58.22239081 96.89733998 57.28910828 93.03088379 C57.26590286 88.61412038 57.84519899 84.97660357 59.72660828 80.96838379 C60.55916942 78.14449834 60.55916942 78.14449834 59.43363953 76.13244629 C53.12444773 66.90724148 42.85411606 62.18830672 33.28910828 57.03088379 C31.49058001 56.05496821 29.69239583 55.07841821 27.89457703 54.10119629 C27.00794373 53.61940918 26.12131042 53.13762207 25.20780945 52.64123535 C16.6369052 47.97998734 8.10736462 43.26825908 -0.32417297 38.35900879 C-2.40130123 36.94984213 -2.40130123 36.94984213 -3.71089172 37.03088379 Z M151.42778015 59.48718262 C150.10962956 60.78407787 148.78529105 62.07472088 147.45414734 63.35827637 C137.72385068 72.74421366 130.15641365 82.39804684 123.28910828 94.03088379 C122.57060126 95.22144658 121.85124696 96.41149859 121.13090515 97.60095215 C119.2118614 100.8090291 117.33711385 104.03857571 115.47660828 107.28088379 C114.86108093 108.33533691 114.24555359 109.38979004 113.6113739 110.47619629 C106.24884136 123.24937045 101.21483187 135.61945119 97.61894226 149.86242676 C96.97154768 152.42592228 96.30668002 154.98439691 95.63871765 157.54260254 C95.21258179 159.19208264 94.78741623 160.8418138 94.36332703 162.49182129 C94.07119576 163.62326065 94.07119576 163.62326065 93.77316284 164.77755737 C92.66422399 169.18409034 91.85216783 173.52121101 91.28910828 178.03088379 C95.13000696 173.60255354 97.87259793 168.74285377 100.72660828 163.65588379 C101.24883972 162.7332373 101.77107117 161.81059082 102.30912781 160.85998535 C103.415201 158.9046824 104.51932557 156.94827603 105.62162781 154.99084473 C107.23381912 152.12902811 108.85215119 149.27078591 110.47270203 146.41369629 C121.63486396 126.72262088 132.68161331 106.96661861 143.65238953 87.16833496 C146.84976175 81.40242381 150.06462973 75.6473281 153.31254578 69.90979004 C153.95901062 68.76510254 154.60547546 67.62041504 155.27153015 66.44104004 C156.50581883 64.25778845 157.74392303 62.07668825 158.9863739 59.89807129 C159.81298523 58.43434082 159.81298523 58.43434082 160.65629578 56.94104004 C161.14211121 56.08647217 161.62792664 55.2319043 162.12846375 54.35144043 C163.19289017 52.22325928 163.82855987 50.35541307 164.28910828 48.03088379 C160.71065769 48.03088379 154.01020879 56.93593208 151.42778015 59.48718262 Z M-12.71089172 51.03088379 C-11.39752125 54.43904985 -9.92918775 57.67891812 -8.24214172 60.91760254 C-7.75882385 61.84637207 -7.27550598 62.7751416 -6.77754211 63.73205566 C-6.26054749 64.71754395 -5.74355286 65.70303223 -5.21089172 66.71838379 C-4.67262756 67.74641113 -4.1343634 68.77443848 -3.57978821 69.83361816 C1.23020844 78.98361622 6.2039556 88.03151393 11.28910828 97.03088379 C11.77460144 97.89084961 12.2600946 98.75081543 12.76029968 99.63684082 C14.90178059 103.42883555 17.04435473 107.22019898 19.19120789 111.00915527 C22.06905696 116.09035099 24.93349165 121.17841839 27.77348328 126.28088379 C34.93600268 139.1467434 42.23624747 151.91407528 49.80473328 164.54602051 C50.86407565 166.31937358 51.91527639 168.09760067 52.96098328 169.87902832 C53.50238953 170.79667969 54.04379578 171.71433105 54.60160828 172.65979004 C55.3383075 173.91578003 55.3383075 173.91578003 56.08988953 175.19714355 C56.48563171 175.80227783 56.8813739 176.40741211 57.28910828 177.03088379 C57.61910828 177.03088379 57.94910828 177.03088379 58.28910828 177.03088379 C57.67793385 168.89960667 55.73063027 161.25821571 53.60160828 153.40588379 C53.42070648 152.73525909 53.23980469 152.0646344 53.05342102 151.37368774 C50.4126249 141.63356131 47.67983252 132.15922922 43.28910828 123.03088379 C42.92510925 122.27146484 42.56111023 121.5120459 42.18608093 120.72961426 C33.56214073 102.96795252 23.37699783 85.03698589 9.28910828 71.03088379 C7.81819121 69.52521791 6.34824158 68.01860665 4.87895203 66.51135254 C3.24631825 64.84974001 1.6121851 63.18959946 -0.02339172 61.53088379 C-0.81326477 60.72755615 -1.60313782 59.92422852 -2.41694641 59.09655762 C-3.17008118 58.34269775 -3.92321594 57.58883789 -4.69917297 56.81213379 C-5.37504456 56.13215332 -6.05091614 55.45217285 -6.74726868 54.75158691 C-8.65702429 53.07808728 -10.39403305 52.042347 -12.71089172 51.03088379 Z M58.28910828 177.03088379 C59.28910828 179.03088379 59.28910828 179.03088379 59.28910828 179.03088379 Z " fill="#24226D" transform="translate(55.71089172363281,7.9691162109375)"/>
<path d="M0 0 C1.7569055 0.00373656 3.5138131 0.00658049 5.27072144 0.00857544 C9.86395155 0.01616128 14.4570524 0.0357656 19.05023193 0.0579834 C23.74961601 0.07855141 28.44902125 0.08760044 33.1484375 0.09765625 C42.34641053 0.11901691 51.54428821 0.15309088 60.7421875 0.1953125 C60.07382783 3.82864766 59.21284447 6.52140334 57.36328125 9.73046875 C56.61147583 11.04748779 56.61147583 11.04748779 55.84448242 12.39111328 C55.2951001 13.33712402 54.74571777 14.28313477 54.1796875 15.2578125 C53.32370972 16.75030518 53.32370972 16.75030518 52.45043945 18.27294922 C51.21111979 20.43331062 49.96906052 22.59210217 48.72460938 24.74951172 C46.67081821 28.31936499 44.63392685 31.89839807 42.6015625 35.48046875 C41.55286389 37.32615946 40.50382792 39.17165789 39.45462036 41.01705933 C38.46114857 42.76496031 37.4687164 44.51345205 36.47631836 46.26196289 C32.05456444 54.01176066 27.450775 61.61767446 22.7421875 69.1953125 C16.8021875 65.7303125 16.8021875 65.7303125 10.7421875 62.1953125 C12.7221875 57.9053125 14.7021875 53.6153125 16.7421875 49.1953125 C14.4321875 51.5053125 12.1221875 53.8153125 9.7421875 56.1953125 C6.1121875 53.8853125 2.4821875 51.5753125 -1.2578125 49.1953125 C2.570196 44.63815952 6.51080698 40.3792826 10.7421875 36.1953125 C8.40683596 37.42076389 6.07378328 38.65024843 3.7421875 39.8828125 C3.05463379 40.2442334 2.36708008 40.6056543 1.65869141 40.97802734 C-2.00294427 42.92183725 -5.47683907 44.94665148 -8.8828125 47.3203125 C-12.2578125 49.1953125 -12.2578125 49.1953125 -14.7578125 48.8203125 C-15.5828125 48.2840625 -16.4078125 47.7478125 -17.2578125 47.1953125 C-17.94488281 46.77765625 -18.63195312 46.36 -19.33984375 45.9296875 C-21.33348189 44.71465059 -23.30051985 43.46779556 -25.2578125 42.1953125 C-23.89377154 38.10318963 -22.06980661 37.70981907 -18.30859375 35.68359375 C-17.69952682 35.35167526 -17.0904599 35.01975677 -16.4629364 34.67778015 C-14.50341542 33.61219445 -12.53723954 32.55965417 -10.5703125 31.5078125 C-8.6513532 30.47115016 -6.73389274 29.43177139 -4.81694031 28.3914032 C-3.04483879 27.43136113 -1.26923583 26.4777903 0.5065918 25.5246582 C6.62793983 22.15825198 12.67667841 18.6613177 18.7421875 15.1953125 C5.8721875 15.1953125 -6.9978125 15.1953125 -20.2578125 15.1953125 C-23.38163069 21.35163 -23.38163069 21.35163 -26.47949219 27.52099609 C-27.07358887 28.67075928 -27.07358887 28.67075928 -27.6796875 29.84375 C-28.07768555 30.62927246 -28.47568359 31.41479492 -28.88574219 32.22412109 C-30.2578125 34.1953125 -30.2578125 34.1953125 -34.2578125 36.1953125 C-37.2278125 33.8853125 -40.1978125 31.5753125 -43.2578125 29.1953125 C-41.4979189 20.39584448 -35.68931554 7.77965243 -28.2578125 2.1953125 C-19.48526305 -1.08981901 -9.2207993 -0.0579346 0 0 Z " fill="#7848DD" transform="translate(202.2578125,7.8046875)"/>
<path d="M0 0 C1.06806885 0.00543823 1.06806885 0.00543823 2.15771484 0.01098633 C3.59318041 0.00760156 5.02879612 -0.01864312 6.46337891 -0.0690918 C18.16632393 -0.46642238 18.16632393 -0.46642238 23.07617188 3.57983398 C25.51164166 6.70398433 27.43882533 9.83949671 29.33203125 13.31835938 C29.97269531 14.45023682 30.61335938 15.58211426 31.2734375 16.74829102 C32.87848075 19.69121362 34.41529691 22.64755692 35.90771484 25.64779663 C36.85747036 27.55699712 37.82140265 29.45845985 38.7890625 31.35864258 C40.06744484 33.87139718 41.3410858 36.3864328 42.609375 38.90429688 C50.12226347 57.20376306 50.12226347 57.20376306 62.78515625 70.19335938 C65.79363522 70.34101478 66.91706904 70.11346475 69.33203125 68.31835938 C71.12929958 65.83462206 71.12929958 65.83462206 72.76953125 62.69335938 C73.09373047 62.1066748 73.41792969 61.51999023 73.75195312 60.91552734 C74.9578581 58.72312207 76.14448548 56.52076432 77.33203125 54.31835938 C78.46826753 52.22955519 79.60502291 50.14103333 80.7421875 48.05273438 C83.95217291 42.14845897 87.14647709 36.23584712 90.33203125 30.31835938 C94.71410092 30.31835938 95.63630089 30.88607912 99.08203125 33.31835938 C99.88125 33.87523437 100.68046875 34.43210938 101.50390625 35.00585938 C102.1071875 35.43898437 102.71046875 35.87210938 103.33203125 36.31835938 C102.01203125 39.28835937 100.69203125 42.25835937 99.33203125 45.31835938 C100.71390625 44.61710937 102.09578125 43.91585937 103.51953125 43.19335938 C107.95169641 41.25342416 107.95169641 41.25342416 110.89453125 41.75585938 C111.69890625 42.27148438 112.50328125 42.78710938 113.33203125 43.31835938 C114.0178125 43.71152344 114.70359375 44.1046875 115.41015625 44.50976562 C119.52667304 46.9206627 119.52667304 46.9206627 121.33203125 48.31835938 C121.33203125 48.97835937 121.33203125 49.63835938 121.33203125 50.31835938 C120.60201904 50.70056641 119.87200684 51.08277344 119.11987305 51.4765625 C116.35218858 52.9309587 113.58879924 54.39315705 110.82788086 55.86035156 C109.06868492 56.79231928 107.30490824 57.71562419 105.54101562 58.63867188 C91.34424316 66.02358201 91.34424316 66.02358201 80.33203125 77.31835938 C80.52032901 80.95878268 81.18280756 83.87068831 82.33203125 87.31835938 C82.86414157 91.89799734 82.78682702 95.37238418 80.76953125 99.56835938 C77.87912202 102.82933389 74.97419181 104.9369467 71.33203125 107.31835938 C66.3069321 104.34628746 63.18002951 101.03605055 59.70703125 96.38085938 C58.77743272 95.16334352 57.84774674 93.94589443 56.91796875 92.72851562 C56.48000977 92.14602051 56.04205078 91.56352539 55.59082031 90.96337891 C54.46185291 89.48801383 53.27894847 88.05429312 52.08984375 86.62695312 C50.04652618 83.94339605 49.21257126 81.5601215 48.23828125 78.38085938 C45.92753369 73.12191665 42.15537195 70.29613616 37.39453125 67.31835938 C31.39710455 63.55764681 26.57039717 60.04767109 24.01953125 53.25585938 C23.53033203 52.00095703 23.53033203 52.00095703 23.03125 50.72070312 C22.33203125 48.31835937 22.33203125 48.31835937 22.33203125 44.31835938 C23.50765625 44.56585938 23.50765625 44.56585938 24.70703125 44.81835938 C27.21411164 45.38073008 27.21411164 45.38073008 29.33203125 45.31835938 C28.84734375 44.33738281 28.36265625 43.35640625 27.86328125 42.34570312 C27.54439941 41.69996338 27.22551758 41.05422363 26.89697266 40.38891602 C26.17971543 38.95226393 25.45260124 37.52049579 24.71630859 36.09350586 C22.83184723 32.42972303 21.09682905 28.81188713 19.65234375 24.95117188 C17.97195801 20.75563767 16.47403704 17.63899231 13.33203125 14.31835938 C8.76059284 12.77672633 4.13426839 13.03260072 -0.62109375 13.30273438 C-3.5187198 13.44127671 -4.4705185 13.42341303 -7.10546875 12.02148438 C-10.03461573 8.82871417 -11.66796875 5.65717723 -11.66796875 1.31835938 C-9.20005856 -1.14955082 -3.4235369 0.00472547 0 0 Z " fill="#3B37A7" transform="translate(66.66796875,7.681640625)"/>
<path d="M0 0 C4.484542 1.3789035 7.46309903 2.87920503 11 6 C9.57773977 9.28112759 7.86637579 11.30672443 5.25390625 13.73046875 C-4.12883673 22.63393407 -12.05346453 31.25316285 -18.53076172 42.46044922 C-20.24282059 45.41971083 -21.99919924 48.35099127 -23.75390625 51.28515625 C-30.62547564 62.88198172 -37.1156906 74.41862716 -42 87 C-43.65206447 86.07352464 -45.2964997 85.13343426 -46.9375 84.1875 C-47.85402344 83.66542969 -48.77054688 83.14335937 -49.71484375 82.60546875 C-52 81 -52 81 -53 78 C-52.18288324 75.58828597 -51.29923214 73.37238724 -50.25 71.0625 C-49.93490479 70.36084717 -49.61980957 69.65919434 -49.29516602 68.9362793 C-45.041824 59.67531299 -40.17444329 50.774699 -35 42 C-34.24468994 40.71319336 -34.24468994 40.71319336 -33.47412109 39.40039062 C-24.33606742 24.1119996 -12.92028819 12.07878646 0 0 Z " fill="#3B37A8" transform="translate(200,57)"/>
<path d="M0 0 C4.10958767 1.45044271 7.43258745 3.51110752 11 6 C10.4032013 10.00552448 9.13681748 12.92937098 7.1484375 16.4453125 C6.25390869 18.04004395 6.25390869 18.04004395 5.34130859 19.66699219 C4.36798584 21.37870605 4.36798584 21.37870605 3.375 23.125 C2.69671583 24.32935157 2.0191564 25.53411158 1.34228516 26.73925781 C-0.06594576 29.2453705 -1.47729018 31.74969219 -2.890625 34.25292969 C-6.1688024 40.06673674 -9.3923016 45.91081944 -12.625 51.75 C-19.35083578 63.87067337 -26.15679786 75.94526135 -33 88 C-39.98990251 85.77855153 -39.98990251 85.77855153 -43 83 C-43 82.34 -43 81.68 -43 81 C-43.66 80.67 -44.32 80.34 -45 80 C-38.3966447 67.68863236 -31.73409237 55.42382832 -24.75097656 43.32324219 C-21.72437107 38.06191027 -18.75625454 32.7718195 -15.83203125 27.453125 C-15.47336472 26.80087448 -15.11469818 26.14862396 -14.74516296 25.47660828 C-12.96904867 22.24378277 -11.19743224 19.00856062 -9.43041992 15.77075195 C-8.77656926 14.57761518 -8.12268099 13.384499 -7.46875 12.19140625 C-6.89576172 11.14154541 -6.32277344 10.09168457 -5.73242188 9.01000977 C-3.94294894 5.90087619 -2.0212412 2.96184892 0 0 Z " fill="#3B37A8" transform="translate(213,70)"/>
<path d="M0 0 C4.43458973 1.3937282 6.87378374 3.60582235 10 7 C6.433255 7 5.89456323 6.36308045 3.3125 4.0625 C2.68988281 3.51722656 2.06726562 2.97195312 1.42578125 2.41015625 C0.95527344 1.94480469 0.48476563 1.47945312 0 1 C0 0.67 0 0.34 0 0 Z " fill="#DCDCEA" transform="translate(43,40)"/>
</svg>
